<svg width="245" height="80" viewBox="0 0 245 80" fill="none" xmlns="http://www.w3.org/2000/svg">
<g clip-path="url(#clip0_291_860)" filter="url(#filter0_d_291_860)">
<path d="M44.4339 13.3544V12.3733C44.3404 8.23494 42.4805 5.79439 38.8541 5.05169H38.7168C38.5652 5.04324 38.4148 5.02191 38.2672 4.98796C38.1209 4.95247 37.9712 4.93111 37.8204 4.92421C36.6648 4.79076 35.4958 4.80101 34.3429 4.9547C33.2665 5.1062 31.8552 5.73804 30.1092 6.85024C28.3631 7.96244 26.7552 9.56422 25.2856 11.6556C23.814 13.747 22.2752 16.9284 20.6693 21.1998C19.0634 25.4712 17.6872 30.5925 16.5407 36.5636C16.675 29.0702 17.1558 20.0922 17.9831 9.62981C18.1414 8.18181 18.0136 6.71849 17.6064 5.31496C17.3123 4.26579 16.7712 3.29362 16.0239 2.47165C15.3345 1.78076 14.4999 1.23504 13.5741 0.869865C12.729 0.509994 11.8376 0.257482 10.9229 0.118857C10.0797 0.00639501 9.22692 -0.0270256 8.37683 0.0190874C7.47752 0.0634275 6.86922 0.106844 6.55193 0.149337C6.22783 0.196448 5.96797 0.23802 5.79278 0.28236C6.11201 1.3262 6.18014 3.01482 5.99717 5.34822C5.81419 7.68161 5.60786 10.5037 5.37816 13.8144C5.14847 17.1251 4.86135 20.5781 4.51681 24.1734C4.17227 27.7686 4 31.3324 4 34.8649C4 38.3917 4.1382 41.5519 4.41462 44.3453C4.69103 47.1388 5.33339 49.3936 6.34171 51.11C7.35489 52.8309 8.67757 53.6678 10.339 53.6263C11.6685 53.5819 13.1955 53.1579 14.9202 52.3543C16.6448 51.5506 17.6892 50.6268 18.0532 49.583C18.4678 48.8846 18.9038 46.9882 19.3612 43.8936C19.8187 40.799 20.3238 37.3987 20.8766 33.6926C21.4275 29.9976 22.1166 26.2943 22.9439 22.5827C23.7712 18.871 24.9303 15.7654 26.4214 13.2657C27.9144 10.7605 29.6245 9.48478 31.5516 9.43859C31.7867 9.43256 32.0203 9.47673 32.2351 9.56787C32.4499 9.659 32.6404 9.79477 32.7925 9.96513C33.1676 10.4307 33.4054 10.9826 33.4816 11.5641C33.6218 12.2667 33.7193 12.9764 33.7735 13.6897C33.8156 14.5949 33.803 15.5017 33.7356 16.4055C33.6684 17.514 33.613 18.387 33.5633 19.0216C33.5137 19.6562 33.4407 20.5347 33.3239 21.6681C33.2071 22.8016 33.1283 23.4972 33.0845 23.7577C32.8548 26.1594 32.6698 28.284 32.5297 30.1316C32.3895 31.9791 32.2981 33.9836 32.2552 36.1452C32.1958 37.9911 32.2875 39.8386 32.5297 41.6711C32.7376 43.111 33.0676 44.5326 33.5166 45.9222C33.9546 47.2274 34.594 48.2085 35.4437 48.8625C36.3076 49.5183 37.4094 49.8241 38.5095 49.7132C39.841 49.6283 41.3447 49.1812 43.0207 48.372C44.6966 47.5628 45.7186 46.6797 46.0865 45.7226C44.066 44.7601 43.5151 33.9707 44.4339 13.3544Z" fill="white"/>
<path d="M85.4836 28.5245L84.8646 30.5475C84.4072 31.9442 83.5011 33.8296 82.1463 36.2036L82.0674 36.3367C80.7588 38.6248 79.1786 40.7633 77.3577 42.7106C76.3475 43.8006 75.4988 44.3234 74.8116 44.2791C73.0597 44.2348 72.5303 39.6797 73.2233 30.614C73.3799 29.3213 73.2758 28.0122 72.9167 26.7564C72.6612 25.8237 72.1769 24.9615 71.5035 24.2401C70.8859 23.6396 70.1484 23.1619 69.334 22.8351C68.5904 22.5172 67.8045 22.2972 66.9982 22.1811C66.2447 22.093 65.4853 22.0605 64.7265 22.0841C64.1849 22.0893 63.644 22.1217 63.106 22.1811C62.8316 22.2254 62.6009 22.2698 62.417 22.3141C62.6476 23.2286 62.6914 24.6891 62.5571 26.6927C58.4226 26.0387 54.7242 26.6705 51.4617 28.5882C49.5251 29.7186 47.9973 31.3823 47.082 33.3576C46.1418 35.3677 45.9929 37.2429 46.6352 38.9832C47.2776 40.7236 48.7259 41.7905 50.98 42.184C54.5655 42.7512 57.9652 41.5503 61.1789 38.5814C61.0321 40.5632 61.0546 42.5529 61.2461 44.5313C61.3828 46.0406 61.9681 47.482 62.9338 48.6882C63.874 49.841 65.1937 50.4183 66.8931 50.4202C69.5112 50.4202 72.0417 49.6359 74.4846 48.0674C76.7421 46.6516 78.7189 44.8692 80.3243 42.802C80.7973 42.1785 81.2586 41.5245 81.7141 40.8427C82.72 39.3217 83.6363 37.7489 84.4588 36.1316C85.7435 33.6301 86.5698 31.8879 86.9377 30.905C87.3027 29.924 87.5801 29.1259 87.7669 28.519L85.4836 28.5245ZM61.722 33.7511C59.9701 35.5413 58.2708 36.7182 56.624 37.2817C54.5606 37.9357 53.5728 37.1514 53.6604 34.9289C53.6808 33.9541 54.0599 33.0169 54.732 32.2795C55.4096 31.5555 56.294 31.0337 57.278 30.7775C58.1602 30.5271 59.0585 30.3308 59.9672 30.19C60.7084 30.0825 61.457 30.0279 62.2067 30.0265C62.0666 30.8561 61.905 32.0976 61.722 33.7511Z" fill="white"/>
<path d="M102.153 25.451C98.7936 25.0131 95.8095 27.4325 93.2011 32.7089C93.2449 32.1408 93.3033 31.3898 93.3734 30.4504C93.4435 29.5109 93.4756 28.9372 93.4756 28.7183C93.6296 27.4254 93.5246 26.1166 93.1661 24.8607C92.9106 23.928 92.4264 23.0657 91.7529 22.3444C91.1353 21.7439 90.3978 21.2662 89.5835 20.9394C88.8407 20.6192 88.0545 20.3991 87.2476 20.2854C85.956 20.1523 84.6529 20.1523 83.3613 20.2854C83.0839 20.3297 82.8532 20.3713 82.6722 20.4184C82.9467 21.3329 82.9992 22.9125 82.8445 25.1295C82.6897 27.3465 82.5 30.0624 82.2897 33.2659C82.2226 34.2802 82.1554 35.3028 82.0766 36.342C81.9715 37.8163 81.8488 39.3211 81.7174 40.8536C81.6474 41.661 81.5744 42.4776 81.4984 43.3034C81.1734 46.7897 81.0128 50.2427 81.0167 53.6624C81.0206 57.0821 81.1471 60.1665 81.3963 62.9156C81.6474 65.6628 82.2216 67.8743 83.119 69.55C84.0163 71.2257 85.1988 72.0432 86.6666 72.0026C90.1567 71.8714 92.3602 70.2807 93.277 67.2305C92.0838 66.5321 91.7393 60.2995 92.2434 48.5328C95.2275 47.0086 97.9147 44.7648 100.305 41.8014C103.42 37.9217 105.141 34.2165 105.47 30.6859C105.736 27.5017 104.632 25.7531 102.153 25.451ZM99.8175 35.7047C97.9352 40.0629 95.4552 43.2231 92.3777 45.1851V45.0521L92.4478 45.1186L93.4114 40.74C94.0713 37.7294 95.0284 34.7844 96.2699 31.9441C97.5351 29.0472 98.7858 27.6421 100.022 27.729C100.232 27.7393 100.434 27.8063 100.606 27.9222C100.777 28.038 100.91 28.1979 100.988 28.383C101.765 29.6966 101.373 32.1399 99.8116 35.713L99.8175 35.7047Z" fill="white"/>
<path d="M145.25 28.2002H145.203L143.647 31.4842C143.063 33.5571 142.263 35.2475 141.209 37.9717C140.155 40.6958 138.873 42.9073 137.352 44.6088C135.652 46.4804 134.551 47.0466 134.046 46.3076C133.632 45.6093 133.677 42.6671 134.181 37.4812C134.41 35.3898 134.572 33.7557 134.665 32.5788C134.82 31.284 134.702 29.973 134.321 28.7212C134.046 27.7963 133.565 26.9382 132.911 26.2049C132.301 25.5953 131.561 25.1163 130.741 24.7999C129.981 24.4842 129.181 24.2643 128.362 24.1459C127.608 24.0564 126.849 24.024 126.09 24.0489C125.549 24.0527 125.009 24.0851 124.472 24.1459C124.18 24.1875 123.967 24.2346 123.783 24.2761L123.918 27.0224C124.011 28.8533 123.747 31.0325 123.126 33.5598C122.505 36.0872 121.484 38.0474 120.063 39.4404C118.592 40.8778 117.535 41.3572 116.892 40.8787C115.835 40.0529 115.905 35.6503 117.1 27.6709C117.327 26.2354 117.146 25.0576 116.548 24.1431C116.062 23.3233 115.314 22.6704 114.413 22.2781C113.457 21.9258 112.446 21.7273 111.421 21.6905C110.608 21.6207 109.79 21.6207 108.977 21.6905L107.879 21.8541C108.013 22.2891 107.931 23.4697 107.637 25.3846C107.342 27.2996 107.07 29.3725 106.845 31.595C106.614 33.8215 106.533 36.0597 106.603 38.2959C106.673 40.5425 107.224 42.4158 108.256 43.916C109.287 45.4162 110.837 46.2125 112.904 46.3048C116.53 46.4767 119.514 44.8425 121.856 41.4025C121.765 48.7241 123.924 52.385 128.335 52.385C129.917 52.3897 131.48 52.0663 132.916 51.4372C134.304 50.8406 135.573 50.0223 136.668 49.0179C137.806 47.9411 138.811 46.7456 139.664 45.4541C139.693 45.4097 139.726 45.3654 139.752 45.3183C140.599 44.0703 141.342 42.761 141.974 41.4025C142.569 40.0945 143.144 38.6996 143.696 37.2179C144.249 35.7362 144.651 34.5039 144.902 33.521C145.151 32.5456 145.393 31.5812 145.624 30.65C145.854 29.7189 147.305 29.4113 147.305 29.3642C147.481 28.7711 145.962 28.2612 145.25 28.2002Z" fill="white"/>
<path d="M162.29 39.3104L161.256 33.1748C160.99 31.5593 160.599 29.9643 160.088 28.4027C159.642 27.0794 159.04 25.8078 158.295 24.6116C157.564 23.4348 156.657 22.6283 155.577 22.1923C154.494 21.7572 153.294 21.7794 151.959 22.2588C150.322 22.8957 148.791 23.7545 147.413 24.8084C147.323 24.8971 147.323 24.8999 147.27 24.958L147.139 25.1354C146.417 26.1073 145.785 27.1365 145.25 28.2115C143.984 30.8014 142.956 33.4903 142.178 36.2481C141.139 39.788 140.327 42.8114 139.743 45.3185C139.474 46.4768 139.251 47.5253 139.074 48.4638L139.352 48.5941C139.582 48.68 139.822 48.7659 140.076 48.8546C140.357 48.948 140.654 48.9922 140.952 48.9848C141.27 48.9433 141.433 48.7077 141.433 48.2671C142.074 45.6067 142.809 43.0137 143.638 40.4882C144.669 37.5038 145.984 34.6145 147.565 31.8557C147.974 30.8553 148.459 30.3121 149.007 30.2207C149.926 32.009 150.845 36.6278 151.764 44.0769C152.132 45.8256 152.797 47.1253 153.761 47.9567C154.725 48.7881 155.679 49.2758 156.622 49.3617C157.681 49.4366 158.746 49.3142 159.755 49.0015C160.564 48.7894 161.357 48.5275 162.129 48.2172C162.484 48.0681 162.819 47.8822 163.131 47.6629C163.033 47.1937 162.753 44.4095 162.29 39.3104Z" fill="white"/>
<path d="M195.141 36.0095C194.619 37.0016 194.058 37.9937 193.451 38.9858C192.819 40.0319 192.061 41.0039 191.191 41.8818C190.685 42.3887 190.142 42.8619 189.567 43.2979C187.996 44.4729 186.37 45.0632 184.671 45.0632C183.642 45.0889 182.642 44.7376 181.879 44.0822C181.111 43.4059 180.593 42.5129 180.402 41.5354C180.171 40.4879 180.022 39.7147 179.952 39.2103C179.887 38.7446 179.853 38.2752 179.853 37.8053C181.548 36.3743 183.051 34.75 184.326 32.9694C186.349 30.0522 187.428 27.3937 187.564 24.9938L185.634 24.2067C184.06 28.4538 181.413 32.2701 177.926 35.3222C175.993 36.7152 175.05 35.1901 175.097 30.7469C175.233 28.0883 175.417 25.0593 175.648 21.6599C175.755 20.3851 175.627 19.1024 175.272 17.8689C175.016 16.9346 174.531 16.0713 173.856 15.3498C173.238 14.749 172.501 14.2713 171.686 13.9448C170.944 13.6244 170.157 13.4042 169.35 13.2907C168.597 13.2011 167.837 13.1687 167.079 13.1937C166.537 13.1976 165.996 13.23 165.458 13.2907C165.184 13.3351 164.953 13.3767 164.769 13.421C165.046 14.3447 165.104 15.9151 164.944 18.1321C164.785 20.3491 164.6 23.9776 164.39 29.0176C164.195 34.0502 164.205 37.9392 164.419 40.6846C164.633 43.43 165.196 45.6378 166.109 47.3079C167.003 48.9845 168.191 49.8021 169.657 49.7577C173.462 49.8981 176.144 47.44 177.701 42.3834L178.259 43.6249C178.665 44.4979 179.427 45.3375 180.527 46.1412C181.579 46.935 182.908 47.3203 184.247 47.2192C185.733 47.2157 187.193 46.8441 188.481 46.1412C189.796 45.4487 190.98 44.5534 191.985 43.4919C192.344 43.1095 192.703 42.7021 193.048 42.2698C193.68 41.4702 194.265 40.6375 194.8 39.7756C195.311 38.9443 195.766 38.1683 196.157 37.4284C195.629 37.2344 195.278 36.7771 195.141 36.0095Z" fill="white"/>
<path d="M225.055 38.8196C225.055 38.8196 223.975 42.3502 216.211 45.0022C215.819 45.1433 215.403 45.2129 214.984 45.2073C210.789 45.0937 212.754 37.7249 213.411 29.1534C213.56 27.8592 213.453 26.55 213.095 25.2931C212.84 24.3618 212.356 23.5007 211.685 22.7795C211.069 22.1788 210.332 21.7011 209.518 21.3745C208.775 21.0553 207.989 20.8352 207.183 20.7205C206.429 20.6312 205.67 20.5979 204.911 20.6207C204.369 20.6264 203.828 20.6597 203.29 20.7205C203.016 20.7648 202.785 20.8064 202.601 20.8508C202.832 21.7653 202.876 23.2285 202.742 25.2321C198.607 24.5781 194.909 25.2099 191.646 27.1276C189.711 28.2595 188.183 29.9227 187.266 31.897C186.322 33.9034 186.173 35.7786 186.82 37.5226C187.065 38.2076 187.477 38.8276 188.024 39.3316C188.571 39.8356 189.236 40.2091 189.964 40.4214C190.357 40.5524 190.76 40.6534 191.17 40.7234C191.392 40.7567 191.62 40.7844 191.845 40.8066C195.175 41.1336 198.348 39.9078 201.363 37.1291C201.219 39.111 201.242 41.1007 201.433 43.079C201.571 44.5876 202.155 46.0286 203.118 47.2359C204.061 48.3915 205.393 48.7933 207.08 48.9679C211.513 49.4335 219.615 49.04 227.992 39.8754M201.912 32.2988C200.16 34.0872 198.462 35.264 196.817 35.8294C196.052 36.0733 195.439 36.1065 194.966 35.9652C194.402 35.7804 194.051 35.3112 193.915 34.5574C193.856 34.1991 193.837 33.8359 193.859 33.4738C193.875 32.5004 194.251 31.5633 194.922 30.8273C195.259 30.4608 195.653 30.145 196.09 29.8906C196.521 29.6496 196.983 29.4633 197.465 29.3363C197.568 29.3059 197.667 29.2781 197.757 29.256C198.541 29.0406 199.338 28.8703 200.143 28.7461C200.883 28.6386 201.631 28.584 202.38 28.5826C202.243 29.3992 202.084 30.6351 201.901 32.2905L201.912 32.2988Z" fill="white"/>
<path d="M226.398 41.1284C225.835 40.7016 225.437 40.4577 224.524 39.837C225.004 39.1232 225.294 38.3089 225.367 37.4648C224.932 37.8749 224.249 37.9608 223.709 38.0772C226.205 36.675 223.102 33.6155 225.461 32.1911C222.649 31.7477 219.458 32.9476 217.606 30.1071C215.563 27.1474 215.32 22.4778 217.84 19.7481C213.405 21.9069 211.416 26.4795 212.941 30.9357C212.677 30.8095 212.443 30.6328 212.255 30.4168C212.066 30.2007 211.927 29.95 211.846 29.6803C211.606 30.5893 211.043 30.9578 210.386 30.98C209.337 30.3731 208.362 29.8216 207.483 29.3394L207.226 29.1953L205.889 28.4637C206.196 27.246 206.788 26.1095 207.621 25.1382C206.803 26.5488 209.615 29.4919 209.98 27.8097C210.07 25.8338 208.876 23.9826 208.783 22.0039C208.654 19.2465 210.806 16.697 213.495 15.6467C219.242 12.5983 229.096 20.3994 229.642 14.6573C229.423 13.5266 228.022 13.0694 227.075 12.3516C222.112 7.6405 230.022 1.91232 234.798 5.83364C235.826 6.88949 238.594 8.01185 238.358 5.62303C239.342 6.55971 239.152 8.54393 237.774 9.07047C236.048 9.38362 234.904 7.54074 233.245 7.43543C229.928 6.80635 229.096 10.3037 231.245 12.2934C233.753 15.1561 239.21 13.6791 237.47 19.022C236.781 21.6825 234.55 24.5646 231.373 24.2542C230.442 24.232 229.94 23.5087 229.648 22.7466C229.245 21.7988 228.527 20.5296 227.379 20.4215C226.313 20.3301 225.125 20.9536 224.494 21.7406C224.1 22.2438 223.858 22.8397 223.795 23.464C223.731 24.0882 223.849 24.717 224.135 25.2823C225.163 27.2499 228.01 27.9704 228.827 30.0267C229.141 30.9313 229.112 31.9114 228.746 32.798C228.506 33.4464 227.105 34.9789 227.271 35.6219C227.531 36.6167 229.315 36.226 229.686 35.5498C229.435 38.3322 228.194 40.1196 226.398 41.1284Z" fill="white"/>
<path d="M207.483 29.3393L207.226 29.1952C207.209 29.0761 207.2 28.9541 207.191 28.835C207.27 29.0123 207.368 29.1814 207.483 29.3393Z" fill="white"/>
<path d="M232.01 22.0011C233.283 22.3641 234.559 21.6075 235.35 20.6958C234.821 21.929 232.961 24.1155 231.423 23.4366C231.207 22.7086 230.797 22.0459 230.231 21.5133C230.652 21.214 231.58 21.8791 232.01 22.0011Z" fill="white"/>
<path d="M229.601 6.01651C229.88 5.87364 230.187 5.7873 230.503 5.76298C230.82 5.73865 231.138 5.77685 231.437 5.87518C230.885 5.90113 230.358 6.10436 229.942 6.4516C229.531 6.79652 229.158 7.18101 228.83 7.5989C228.757 7.68481 228.646 7.78181 228.538 7.7347C228.281 7.62385 228.649 6.95874 228.734 6.82295C228.94 6.48462 229.24 6.2059 229.601 6.01651Z" fill="white"/>
<path d="M230.308 29.4417L230.349 29.4667C230.504 29.2263 230.645 28.9774 230.769 28.7212C230.908 28.4914 231.007 28.2415 231.061 27.9813C231.086 27.8511 231.077 27.7172 231.034 27.5911C230.992 27.4651 230.918 27.3507 230.819 27.258C230.626 27.1269 230.396 27.0527 230.159 27.0446C229.166 26.9254 227.586 26.6234 228.55 27.8039C229.051 28.4264 229.643 28.9779 230.308 29.4417Z" fill="white"/>
<path d="M239.091 9.36422C239.427 9.06391 239.684 8.69203 239.84 8.27916C239.996 7.86628 240.046 7.42421 239.987 6.98926C240.167 7.03071 240.336 7.10759 240.483 7.21491C240.629 7.32224 240.751 7.45762 240.839 7.61228C240.927 7.76694 240.98 7.93744 240.994 8.11273C241.008 8.28802 240.983 8.46419 240.921 8.62984C240.765 8.95463 240.488 9.21385 240.144 9.35878C239.8 9.50371 239.412 9.52437 239.053 9.41687L239.091 9.36422Z" fill="white"/>
</g>
<defs>
<filter id="filter0_d_291_860" x="0" y="0" width="245" height="80" filterUnits="userSpaceOnUse" color-interpolation-filters="sRGB">
<feFlood flood-opacity="0" result="BackgroundImageFix"/>
<feColorMatrix in="SourceAlpha" type="matrix" values="0 0 0 0 0 0 0 0 0 0 0 0 0 0 0 0 0 0 127 0" result="hardAlpha"/>
<feOffset dy="4"/>
<feGaussianBlur stdDeviation="2"/>
<feComposite in2="hardAlpha" operator="out"/>
<feColorMatrix type="matrix" values="0 0 0 0 0 0 0 0 0 0 0 0 0 0 0 0 0 0 0.25 0"/>
<feBlend mode="normal" in2="BackgroundImageFix" result="effect1_dropShadow_291_860"/>
<feBlend mode="normal" in="SourceGraphic" in2="effect1_dropShadow_291_860" result="shape"/>
</filter>
<clipPath id="clip0_291_860">
<rect width="237" height="72" fill="white" transform="translate(4)"/>
</clipPath>
</defs>
</svg>
