<svg width="155" height="56" viewBox="0 0 155 56" fill="none" xmlns="http://www.w3.org/2000/svg">
<g clip-path="url(#clip0_177_1135)" filter="url(#filter0_d_177_1135)">
<path d="M29.0792 8.903V8.24898C29.0213 5.49004 27.8676 3.863 25.6183 3.36787H25.5332C25.4392 3.36224 25.3459 3.34802 25.2543 3.32538C25.1636 3.30173 25.0708 3.28749 24.9772 3.28289C24.2604 3.19392 23.5353 3.20075 22.8203 3.30321C22.1526 3.40421 21.2773 3.82544 20.1943 4.5669C19.1113 5.30837 18.114 6.37622 17.2025 7.77047C16.2897 9.16472 15.3353 11.2857 14.3392 14.1333C13.3431 16.9809 12.4895 20.3951 11.7784 24.3758C11.8617 19.3802 12.1599 13.3949 12.6731 6.41995C12.7712 5.45462 12.692 4.47907 12.4394 3.54338C12.257 2.84394 11.9214 2.19583 11.4578 1.64784C11.0303 1.18725 10.5126 0.823437 9.93839 0.579987C9.41421 0.340073 8.8613 0.171732 8.29397 0.079315C7.77097 0.00434027 7.24202 -0.0179401 6.71474 0.0128019C6.15694 0.0423619 5.77964 0.0713064 5.58285 0.0996348C5.38182 0.131042 5.22064 0.158757 5.11198 0.188317C5.30998 0.88421 5.35224 2.00996 5.23875 3.56555C5.12526 5.12115 4.99728 7.00253 4.85481 9.20968C4.71234 11.4168 4.53426 13.7188 4.32055 16.1156C4.10685 18.5125 4 20.8884 4 23.2433C4 25.5946 4.08572 27.7013 4.25717 29.5636C4.42861 31.4259 4.82704 32.9292 5.45245 34.0734C6.08088 35.2207 6.90128 35.7786 7.93176 35.7509C8.75638 35.7214 9.70356 35.4387 10.7733 34.9029C11.843 34.3671 12.4907 33.7513 12.7165 33.0554C12.9737 32.5898 13.2441 31.3255 13.5279 29.2625C13.8116 27.1994 14.1249 24.9326 14.4678 22.4618C14.8095 19.9985 15.2369 17.5296 15.75 15.0552C16.2631 12.5808 16.9821 10.5103 17.9069 8.84387C18.833 7.17373 19.8937 6.32326 21.0889 6.29247C21.2348 6.28845 21.3797 6.3179 21.5129 6.37866C21.6461 6.43941 21.7643 6.52992 21.8586 6.6435C22.0913 6.95386 22.2388 7.32178 22.286 7.7095C22.373 8.17791 22.4335 8.65104 22.4671 9.12654C22.4932 9.73002 22.4854 10.3345 22.4436 10.9371C22.4019 11.6761 22.3675 12.2581 22.3367 12.6811C22.306 13.1042 22.2607 13.6899 22.1882 14.4455C22.1158 15.2011 22.0669 15.6649 22.0397 15.8385C21.8973 17.4397 21.7826 18.8561 21.6956 20.0878C21.6087 21.3195 21.552 22.6558 21.5254 24.0969C21.4885 25.3275 21.5454 26.5592 21.6956 27.7808C21.8246 28.7407 22.0293 29.6885 22.3078 30.6149C22.5794 31.485 22.976 32.139 23.503 32.5751C24.0389 33.0123 24.7223 33.2161 25.4046 33.1422C26.2305 33.0856 27.1632 32.7875 28.2027 32.2481C29.2422 31.7086 29.8761 31.1198 30.1043 30.4818C28.851 29.8401 28.5094 22.6472 29.0792 8.903Z" fill="white"/>
<path d="M54.5406 19.0164L54.1566 20.365C53.8729 21.2962 53.3109 22.5531 52.4706 24.1358L52.4217 24.2245C51.61 25.7499 50.6299 27.1756 49.5005 28.4737C48.8738 29.2004 48.3474 29.549 47.9212 29.5194C46.8346 29.4899 46.5062 26.4532 46.936 20.4094C47.0332 19.5476 46.9686 18.6748 46.7459 17.8376C46.5874 17.2158 46.2871 16.641 45.8693 16.1601C45.4863 15.7598 45.0288 15.4413 44.5237 15.2234C44.0625 15.0115 43.575 14.8648 43.0749 14.7874C42.6076 14.7287 42.1365 14.7071 41.6659 14.7228C41.33 14.7262 40.9945 14.7478 40.6608 14.7874C40.4906 14.817 40.3475 14.8465 40.2334 14.8761C40.3765 15.4858 40.4036 16.4594 40.3203 17.7952C37.7559 17.3591 35.4619 17.7804 33.4384 19.0589C32.2372 19.8124 31.2895 20.9215 30.7218 22.2384C30.1387 23.5785 30.0463 24.8286 30.4447 25.9888C30.8432 27.1491 31.7414 27.8604 33.1396 28.1227C35.3635 28.5008 37.4722 27.7002 39.4655 25.721C39.3745 27.0421 39.3884 28.3687 39.5072 29.6875C39.592 30.6937 39.955 31.6547 40.5539 32.4588C41.1371 33.2274 41.9557 33.6123 43.0097 33.6135C44.6336 33.6135 46.2032 33.0906 47.7184 32.045C49.1186 31.1011 50.3447 29.9128 51.3405 28.5347C51.6339 28.119 51.92 27.683 52.2025 27.2285C52.8264 26.2145 53.3948 25.166 53.9049 24.0878C54.7018 22.4201 55.2143 21.2586 55.4425 20.6034C55.6688 19.9493 55.8409 19.4173 55.9568 19.0127L54.5406 19.0164ZM39.8024 22.5007C38.7157 23.6942 37.6617 24.4788 36.6403 24.8545C35.3605 25.2905 34.7478 24.7676 34.8021 23.2859C34.8148 22.6361 35.0499 22.0113 35.4667 21.5197C35.887 21.037 36.4356 20.6892 37.046 20.5184C37.5931 20.3514 38.1503 20.2206 38.7139 20.1267C39.1736 20.055 39.638 20.0186 40.103 20.0177C40.0161 20.5707 39.9159 21.3984 39.8024 22.5007Z" fill="white"/>
<path d="M64.8797 16.9675C62.7958 16.6756 60.9449 18.2884 59.327 21.8061C59.3542 21.4273 59.3904 20.9267 59.4339 20.3004C59.4773 19.6741 59.4973 19.2916 59.4973 19.1457C59.5928 18.2838 59.5277 17.4112 59.3053 16.574C59.1468 15.9521 58.8465 15.3773 58.4288 14.8964C58.0457 14.4961 57.5883 14.1776 57.0832 13.9597C56.6225 13.7463 56.1348 13.5995 55.6343 13.5237C54.8332 13.435 54.025 13.435 53.2238 13.5237C53.0518 13.5533 52.9087 13.581 52.7964 13.6124C52.9667 14.2221 52.9993 15.2752 52.9033 16.7532C52.8073 18.2312 52.6896 20.0417 52.5592 22.1774C52.5175 22.8536 52.4759 23.5353 52.427 24.2282C52.3618 25.211 52.2857 26.2142 52.2042 27.2359C52.1608 27.7741 52.1155 28.3185 52.0684 28.8691C51.8668 31.1933 51.7672 33.4952 51.7696 35.7751C51.772 38.0549 51.8505 40.1112 52.005 41.9439C52.1608 43.7754 52.5169 45.2497 53.0735 46.3668C53.6301 47.4839 54.3636 48.0289 55.2739 48.0018C57.4387 47.9144 58.8054 46.8539 59.3741 44.8204C58.634 44.3549 58.4203 40.1998 58.733 32.3553C60.5839 31.3392 62.2506 29.8433 63.7333 27.8677C65.6651 25.2812 66.733 22.8111 66.937 20.4574C67.1018 18.3346 66.4172 17.1689 64.8797 16.9675ZM63.4308 23.8032C62.2633 26.7087 60.7251 28.8155 58.8163 30.1236V30.0349L58.8598 30.0792L59.4574 27.1601C59.8668 25.1531 60.4604 23.1898 61.2304 21.2962C62.0152 19.3649 62.7909 18.4282 63.5576 18.4861C63.6879 18.493 63.8135 18.5377 63.9197 18.6149C64.0259 18.6922 64.1082 18.7987 64.1571 18.9221C64.6388 19.7978 64.3955 21.4267 63.4272 23.8088L63.4308 23.8032Z" fill="white"/>
<path d="M91.6105 18.8002H91.5815L90.6162 20.9895C90.254 22.3714 89.7578 23.4984 89.104 25.3145C88.4502 27.1306 87.6552 28.6049 86.7116 29.7393C85.6576 30.9869 84.9742 31.3645 84.6615 30.8718C84.4043 30.4062 84.4321 28.4448 84.7448 24.9875C84.8873 23.5932 84.9875 22.5038 85.0454 21.7193C85.141 20.856 85.0684 19.982 84.8317 19.1475C84.6612 18.5309 84.3629 17.9589 83.957 17.47C83.579 17.0636 83.1202 16.7443 82.6114 16.5333C82.1402 16.3228 81.644 16.1763 81.1354 16.0973C80.6682 16.0376 80.197 16.016 79.7264 16.0326C79.3911 16.0352 79.0561 16.0568 78.7231 16.0973C78.542 16.125 78.4098 16.1564 78.2957 16.1841L78.379 18.015C78.437 19.2356 78.2734 20.6883 77.8882 22.3733C77.5031 24.0582 76.8698 25.365 75.9885 26.2937C75.0757 27.2519 74.4201 27.5715 74.0217 27.2525C73.3661 26.702 73.4089 23.7669 74.1503 18.4473C74.2915 17.4903 74.1792 16.7051 73.808 16.0955C73.5063 15.5489 73.0429 15.1137 72.4841 14.8521C71.8909 14.6173 71.2636 14.4849 70.6278 14.4604C70.1235 14.4139 69.6162 14.4139 69.112 14.4604L68.431 14.5694C68.5143 14.8595 68.4636 15.6465 68.2807 16.9231C68.0978 18.1998 67.9293 19.5817 67.7899 21.0634C67.6464 22.5477 67.5962 24.0398 67.6396 25.5307C67.683 27.0284 68.0247 28.2773 68.6646 29.2774C69.3045 30.2775 70.2656 30.8084 71.5478 30.8699C73.7971 30.9845 75.648 29.8951 77.1004 27.6017C77.0437 32.4828 78.3833 34.9234 81.1191 34.9234C82.1001 34.9265 83.0699 34.7109 83.9606 34.2915C84.8212 33.8938 85.6083 33.3482 86.2878 32.6786C86.9932 31.9608 87.6165 31.1638 88.1459 30.3028C88.1641 30.2732 88.184 30.2436 88.2003 30.2122C88.726 29.3802 89.1868 28.5074 89.5785 27.6017C89.9479 26.7297 90.3041 25.7998 90.647 24.812C90.9899 23.8242 91.2392 23.0027 91.3949 22.3474C91.5489 21.6971 91.6992 21.0542 91.8423 20.4334C91.9853 19.8126 92.8854 19.6076 92.8854 19.5761C92.9941 19.1808 92.0523 18.8408 91.6105 18.8002Z" fill="white"/>
<path d="M102.18 26.2068L101.539 22.1165C101.373 21.0394 101.131 19.9761 100.814 18.9351C100.537 18.0529 100.164 17.2051 99.7023 16.4077C99.2484 15.6231 98.6863 15.0855 98.0162 14.7948C97.3443 14.5048 96.6 14.5195 95.7724 14.8391C94.7569 15.2638 93.8071 15.8363 92.9526 16.5389C92.8965 16.598 92.8965 16.5998 92.8639 16.6386L92.7824 16.7569C92.3347 17.4048 91.9427 18.0909 91.6106 18.8076C90.8254 20.5342 90.1879 22.3268 89.7054 24.1653C89.0607 26.5252 88.5572 28.5409 88.195 30.2122C88.0284 30.9845 87.8901 31.6835 87.7803 32.3091L87.9523 32.396C88.0954 32.4533 88.2439 32.5105 88.4015 32.5696C88.5759 32.6319 88.76 32.6614 88.9448 32.6565C89.1422 32.6288 89.2436 32.4717 89.2436 32.178C89.6408 30.4044 90.0966 28.6757 90.6109 26.992C91.2505 25.0025 92.0658 23.0763 93.0468 21.2371C93.3003 20.5701 93.6009 20.208 93.9414 20.147C94.5113 21.3393 95.0812 24.4185 95.651 29.3846C95.8792 30.5503 96.2921 31.4168 96.8898 31.9711C97.4874 32.5253 98.0796 32.8505 98.6646 32.9077C99.3215 32.9577 99.9816 32.8761 100.608 32.6676C101.109 32.5262 101.601 32.3516 102.08 32.1447C102.3 32.0453 102.508 31.9214 102.701 31.7752C102.641 31.4624 102.467 29.6063 102.18 26.2068Z" fill="white"/>
<path d="M122.556 24.0065C122.232 24.6679 121.884 25.3293 121.507 25.9907C121.116 26.688 120.646 27.336 120.106 27.9213C119.792 28.2593 119.455 28.5747 119.099 28.8654C118.124 29.6487 117.116 30.0423 116.062 30.0423C115.424 30.0594 114.804 29.8252 114.33 29.3882C113.854 28.9374 113.533 28.3421 113.414 27.6904C113.271 26.992 113.179 26.4766 113.135 26.1403C113.094 25.8298 113.074 25.5169 113.073 25.2036C114.125 24.2496 115.057 23.1668 115.848 21.9798C117.102 20.035 117.772 18.2626 117.856 16.6626L116.659 16.1379C115.683 18.9693 114.041 21.5135 111.878 23.5483C110.679 24.477 110.094 23.4602 110.123 20.4981C110.208 18.7257 110.322 16.7064 110.466 14.4401C110.532 13.5902 110.452 12.7351 110.232 11.9127C110.074 11.2899 109.773 10.7143 109.354 10.2333C108.971 9.83277 108.513 9.51431 108.008 9.29664C107.547 9.08305 107.06 8.93629 106.559 8.86063C106.092 8.80087 105.621 8.77925 105.15 8.79597C104.814 8.79852 104.479 8.82011 104.145 8.86063C103.975 8.89019 103.832 8.9179 103.718 8.94746C103.889 9.5633 103.925 10.6102 103.826 12.0882C103.727 13.5662 103.613 15.9852 103.482 19.3452C103.361 22.7003 103.368 25.2929 103.5 27.1232C103.633 28.9535 103.983 30.4253 104.549 31.5387C105.103 32.6565 105.84 33.2015 106.749 33.1719C109.11 33.2655 110.773 31.6268 111.739 28.2557L112.085 29.0834C112.336 29.6654 112.809 30.2252 113.492 30.7609C114.144 31.2901 114.969 31.547 115.799 31.4796C116.721 31.4773 117.626 31.2296 118.425 30.7609C119.241 30.2993 119.975 29.7024 120.598 28.9947C120.821 28.7398 121.044 28.4682 121.258 28.18C121.65 27.6469 122.013 27.0918 122.344 26.5172C122.661 25.963 122.944 25.4457 123.186 24.9524C122.859 24.8231 122.641 24.5182 122.556 24.0065Z" fill="white"/>
<path d="M141.11 25.8798C141.11 25.8798 140.44 28.2336 135.624 30.0016C135.381 30.0957 135.123 30.1421 134.863 30.1383C132.261 30.0626 133.48 25.1501 133.887 19.4357C133.98 18.5729 133.914 17.7001 133.692 16.8622C133.533 16.2413 133.233 15.6673 132.817 15.1865C132.435 14.786 131.978 14.4675 131.473 14.2498C131.012 14.037 130.525 13.8902 130.024 13.8138C129.557 13.7543 129.086 13.732 128.615 13.7473C128.279 13.751 127.944 13.7732 127.61 13.8138C127.44 13.8433 127.297 13.8711 127.183 13.9006C127.326 14.5103 127.353 15.4858 127.27 16.8215C124.705 16.3855 122.411 16.8067 120.388 18.0852C119.187 18.8398 118.24 19.9486 117.671 21.2648C117.086 22.6024 116.993 23.8525 117.394 25.0152C117.546 25.4719 117.802 25.8852 118.141 26.2212C118.48 26.5572 118.893 26.8062 119.345 26.9477C119.588 27.0351 119.838 27.1024 120.093 27.1491C120.23 27.1712 120.372 27.1897 120.511 27.2045C122.577 27.4225 124.545 26.6053 126.415 24.7529C126.325 26.0741 126.34 27.4006 126.458 28.7194C126.544 29.7252 126.906 30.6858 127.503 31.4907C128.088 32.2611 128.914 32.529 129.961 32.6454C132.71 32.9558 137.736 32.6934 142.932 26.5837M126.755 21.5327C125.669 22.7249 124.615 23.5095 123.595 23.8864C123.121 24.049 122.74 24.0711 122.447 23.9769C122.097 23.8537 121.88 23.5409 121.795 23.0384C121.758 22.7995 121.747 22.5574 121.761 22.316C121.77 21.6671 122.003 21.0423 122.42 20.5516C122.629 20.3073 122.873 20.0968 123.144 19.9272C123.412 19.7665 123.698 19.6423 123.997 19.5577C124.061 19.5374 124.122 19.5189 124.178 19.5041C124.664 19.3605 125.159 19.247 125.658 19.1642C126.117 19.0925 126.581 19.0561 127.045 19.0552C126.961 19.5996 126.862 20.4235 126.748 21.5271L126.755 21.5327Z" fill="white"/>
<path d="M141.943 27.4188C141.593 27.1343 141.347 26.9717 140.78 26.5579C141.078 26.0821 141.258 25.5392 141.304 24.9764C141.034 25.2498 140.61 25.3071 140.275 25.3847C141.823 24.4499 139.898 22.4102 141.362 21.4606C139.618 21.165 137.638 21.965 136.49 20.0713C135.222 18.0981 135.072 14.9851 136.635 13.1653C133.884 14.6045 132.65 17.6529 133.596 20.6237C133.432 20.5396 133.287 20.4218 133.17 20.2778C133.053 20.1337 132.967 19.9665 132.917 19.7868C132.768 20.3928 132.419 20.6385 132.011 20.6532C131.361 20.2486 130.756 19.881 130.211 19.5595L130.052 19.4635L129.222 18.9757C129.413 18.1639 129.78 17.4062 130.296 16.7587C129.789 17.6991 131.533 19.6611 131.759 18.5397C131.816 17.2224 131.075 15.9883 131.017 14.6692C130.937 12.8309 132.272 11.1312 133.94 10.431C137.504 8.39875 143.616 13.5995 143.955 9.77145C143.819 9.01767 142.95 8.71283 142.363 8.23432C139.284 5.09357 144.19 1.27478 147.153 3.889C147.791 4.5929 149.508 5.34113 149.361 3.74858C149.971 4.37304 149.853 5.69585 148.999 6.04688C147.928 6.25565 147.218 5.02706 146.19 4.95685C144.132 4.53747 143.616 6.86902 144.949 8.19553C146.505 10.104 149.89 9.11928 148.81 12.6813C148.383 14.4549 146.999 16.3763 145.029 16.1694C144.451 16.1546 144.14 15.6724 143.959 15.1643C143.709 14.5325 143.263 13.6863 142.551 13.6143C141.89 13.5533 141.153 13.969 140.762 14.4937C140.517 14.8291 140.367 15.2264 140.328 15.6426C140.289 16.0587 140.362 16.4779 140.539 16.8548C141.177 18.1665 142.943 18.6469 143.45 20.0177C143.644 20.6208 143.626 21.2742 143.399 21.8652C143.25 22.2975 142.381 23.3192 142.484 23.7478C142.646 24.4111 143.752 24.1506 143.982 23.6998C143.826 25.5547 143.057 26.7463 141.943 27.4188Z" fill="white"/>
<path d="M130.211 19.5595L130.052 19.4635C130.041 19.384 130.035 19.3027 130.03 19.2233C130.078 19.3415 130.139 19.4542 130.211 19.5595Z" fill="white"/>
<path d="M145.424 14.6673C146.213 14.9094 147.005 14.405 147.496 13.7972C147.168 14.6193 146.014 16.077 145.06 15.6243C144.926 15.139 144.672 14.6973 144.321 14.3422C144.582 14.1426 145.158 14.586 145.424 14.6673Z" fill="white"/>
<path d="M143.93 4.01093C144.103 3.91568 144.294 3.85813 144.49 3.84191C144.686 3.82569 144.883 3.85116 145.069 3.91671C144.726 3.93401 144.399 4.0695 144.142 4.30099C143.886 4.53094 143.655 4.78726 143.452 5.06586C143.406 5.12313 143.338 5.1878 143.271 5.15639C143.111 5.08249 143.339 4.63909 143.392 4.54856C143.52 4.323 143.706 4.13719 143.93 4.01093Z" fill="white"/>
<path d="M144.368 19.6279L144.393 19.6445C144.49 19.4843 144.577 19.3183 144.654 19.1475C144.741 18.9943 144.802 18.8277 144.835 18.6542C144.851 18.5675 144.845 18.4782 144.819 18.3941C144.793 18.3101 144.747 18.2338 144.685 18.172C144.565 18.0847 144.423 18.0352 144.276 18.0298C143.66 17.9503 142.68 17.749 143.278 18.536C143.589 18.951 143.956 19.3186 144.368 19.6279Z" fill="white"/>
<path d="M149.816 6.24271C150.024 6.04251 150.184 5.79459 150.28 5.51934C150.377 5.24409 150.408 4.94937 150.372 4.6594C150.483 4.68704 150.588 4.73829 150.679 4.80984C150.77 4.88139 150.845 4.97165 150.9 5.07475C150.954 5.17786 150.987 5.29153 150.996 5.40839C151.005 5.52525 150.99 5.64269 150.951 5.75312C150.854 5.96965 150.682 6.14247 150.469 6.23909C150.255 6.33571 150.015 6.34948 149.792 6.27781L149.816 6.24271Z" fill="white"/>
</g>
<defs>
<filter id="filter0_d_177_1135" x="0" y="0" width="155" height="56" filterUnits="userSpaceOnUse" color-interpolation-filters="sRGB">
<feFlood flood-opacity="0" result="BackgroundImageFix"/>
<feColorMatrix in="SourceAlpha" type="matrix" values="0 0 0 0 0 0 0 0 0 0 0 0 0 0 0 0 0 0 127 0" result="hardAlpha"/>
<feOffset dy="4"/>
<feGaussianBlur stdDeviation="2"/>
<feComposite in2="hardAlpha" operator="out"/>
<feColorMatrix type="matrix" values="0 0 0 0 0 0 0 0 0 0 0 0 0 0 0 0 0 0 0.25 0"/>
<feBlend mode="normal" in2="BackgroundImageFix" result="effect1_dropShadow_177_1135"/>
<feBlend mode="normal" in="SourceGraphic" in2="effect1_dropShadow_177_1135" result="shape"/>
</filter>
<clipPath id="clip0_177_1135">
<rect width="147" height="48" fill="white" transform="translate(4)"/>
</clipPath>
</defs>
</svg>
