<svg width="174" height="75" viewBox="0 0 174 75" fill="none" xmlns="http://www.w3.org/2000/svg">
<g clip-path="url(#clip0_110_765)" filter="url(#filter0_d_110_765)">
<path d="M32.3208 12.5099V11.6031C32.2553 7.77774 30.9526 5.52179 28.4125 4.83527H28.3164C28.2102 4.82746 28.1048 4.80775 28.0015 4.77636C27.899 4.74356 27.7942 4.72382 27.6886 4.71744C26.8791 4.59408 26.0603 4.60356 25.2528 4.74562C24.4989 4.88566 23.5104 5.46971 22.2874 6.49778C21.0644 7.52585 19.9383 9.00647 18.9089 10.9397C17.8782 12.8728 16.8004 15.8136 15.6756 19.7619C14.5508 23.7103 13.5868 28.4442 12.7838 33.9636C12.8778 27.037 13.2146 18.7381 13.7941 9.0671C13.9049 7.72863 13.8155 6.37599 13.5302 5.07863C13.3242 4.10882 12.9452 3.21019 12.4218 2.45039C11.9389 1.81176 11.3544 1.30732 10.7059 0.969765C10.114 0.637115 9.48963 0.403704 8.84897 0.275564C8.25838 0.171609 7.66105 0.140716 7.06563 0.183341C6.43573 0.224327 6.00967 0.26446 5.78743 0.303738C5.56042 0.347286 5.37841 0.385714 5.2557 0.4267C5.4793 1.39158 5.52702 2.95247 5.39886 5.10937C5.2707 7.26627 5.12618 9.87487 4.96529 12.9352C4.80441 15.9955 4.60331 19.1873 4.36199 22.5106C4.12066 25.8339 4 29.1281 4 32.3934C4 35.6535 4.0968 38.5746 4.29041 41.1567C4.48401 43.7388 4.93394 45.8231 5.64018 47.4096C6.34984 49.0004 7.27628 49.774 8.43995 49.7356C9.37116 49.6946 10.4408 49.3027 11.6487 48.5598C12.8567 47.817 13.5882 46.9631 13.8431 45.9982C14.1335 45.3527 14.439 43.5996 14.7594 40.7392C15.0798 37.8787 15.4336 34.7355 15.8208 31.3098C16.2066 27.8943 16.6893 24.4711 17.2687 21.0402C17.8482 17.6093 18.6601 14.7386 19.7044 12.428C20.7502 10.1122 21.9479 8.93304 23.2977 8.89034C23.4624 8.88477 23.6261 8.9256 23.7765 9.00984C23.9269 9.09408 24.0604 9.21958 24.1669 9.37705C24.4296 9.80739 24.5962 10.3175 24.6495 10.8551C24.7478 11.5046 24.8161 12.1606 24.854 12.8199C24.8835 13.6566 24.8747 14.4948 24.8275 15.3303C24.7804 16.3549 24.7416 17.1619 24.7068 17.7485C24.672 18.3351 24.6209 19.1471 24.5391 20.1948C24.4573 21.2426 24.4021 21.8855 24.3714 22.1263C24.2105 24.3464 24.081 26.3103 23.9828 28.0181C23.8847 29.7258 23.8206 31.5787 23.7906 33.5768C23.7489 35.2831 23.8132 36.9909 23.9828 38.6847C24.1284 40.0157 24.3596 41.3299 24.6741 42.6143C24.9808 43.8208 25.4287 44.7276 26.0238 45.3322C26.629 45.9384 27.4007 46.221 28.1712 46.1186C29.1038 46.04 30.157 45.6268 31.3309 44.8788C32.5048 44.1308 33.2206 43.3145 33.4783 42.4298C32.0631 41.5401 31.6772 31.5668 32.3208 12.5099Z" fill="white"/>
<path d="M61.0731 26.5323L60.6395 28.4023C60.3191 29.6933 59.6844 31.4361 58.7355 33.6306L58.6803 33.7535C57.7637 35.8686 56.6569 37.8454 55.3815 39.6453C54.6739 40.6529 54.0795 41.1362 53.5982 41.0952C52.3711 41.0542 52.0003 36.8437 52.4856 28.4638C52.5953 27.2689 52.5225 26.0587 52.2709 24.898C52.0919 24.0358 51.7528 23.2388 51.2811 22.572C50.8485 22.0169 50.3319 21.5754 49.7615 21.2733C49.2407 20.9794 48.6902 20.776 48.1254 20.6687C47.5977 20.5872 47.0658 20.5573 46.5343 20.5791C46.155 20.5838 45.7761 20.6138 45.3993 20.6687C45.2071 20.7097 45.0455 20.7507 44.9167 20.7917C45.0782 21.637 45.1089 22.987 45.0148 24.839C42.1189 24.2345 39.5285 24.8186 37.2434 26.5912C35.8869 27.6361 34.8168 29.1739 34.1757 30.9998C33.5172 32.8578 33.4129 34.5912 33.8628 36.1999C34.3127 37.8086 35.3271 38.7948 36.9059 39.1586C39.4173 39.6829 41.7985 38.5728 44.0495 35.8285C43.9467 37.6603 43.9624 39.4996 44.0966 41.3283C44.1923 42.7234 44.6022 44.0559 45.2786 45.1707C45.9372 46.2364 46.8616 46.7701 48.0518 46.7718C49.8856 46.7718 51.658 46.0468 53.3691 44.5969C54.9503 43.2883 56.3349 41.6407 57.4594 39.7298C57.7907 39.1535 58.1138 38.5489 58.4328 37.9188C59.1374 36.5128 59.7792 35.059 60.3552 33.564C61.2551 31.2517 61.8339 29.6413 62.0915 28.7327C62.3472 27.8259 62.5415 27.0882 62.6724 26.5272L61.0731 26.5323ZM44.4299 31.3635C43.2029 33.0183 42.0126 34.1062 40.8591 34.6271C39.4139 35.2316 38.722 34.5067 38.7834 32.4522C38.7977 31.5512 39.0632 30.6849 39.5339 30.0033C40.0085 29.334 40.628 28.8517 41.3173 28.6149C41.9351 28.3834 42.5643 28.202 43.2008 28.0718C43.7199 27.9724 44.2443 27.9219 44.7694 27.9207C44.6712 28.6875 44.5581 29.8351 44.4299 31.3635Z" fill="white"/>
<path d="M72.7485 23.6914C70.3952 23.2867 68.3051 25.523 66.4782 30.4003C66.5088 29.8752 66.5497 29.181 66.5988 28.3126C66.6479 27.4442 66.6704 26.914 66.6704 26.7116C66.7783 25.5165 66.7047 24.3066 66.4536 23.1458C66.2747 22.2836 65.9355 21.4866 65.4638 20.8198C65.0312 20.2647 64.5147 19.8232 63.9443 19.5211C63.424 19.2251 62.8734 19.0216 62.3082 18.9165C61.4035 18.7935 60.4908 18.7935 59.5861 18.9165C59.3918 18.9575 59.2303 18.9959 59.1035 19.0395C59.2957 19.8848 59.3325 21.345 59.2241 23.3943C59.1157 25.4436 58.9828 27.954 58.8356 30.9152C58.7885 31.8528 58.7415 32.798 58.6863 33.7586C58.6126 35.1214 58.5268 36.5124 58.4347 37.929C58.3856 38.6753 58.3345 39.4301 58.2813 40.1935C58.0536 43.416 57.9412 46.6078 57.9439 49.7689C57.9466 52.9299 58.0352 55.781 58.2098 58.3222C58.3856 60.8616 58.7878 62.9058 59.4164 64.4547C60.0449 66.0037 60.8732 66.7593 61.9012 66.7218C64.3458 66.6005 65.8892 65.1301 66.5313 62.3106C65.6956 61.6651 65.4542 55.904 65.8074 45.0273C67.8975 43.6184 69.7797 41.5443 71.4539 38.8051C73.6354 35.2188 74.8413 31.7939 75.0717 28.5303C75.2578 25.587 74.4848 23.9706 72.7485 23.6914ZM71.1124 33.1695C69.794 37.1981 68.057 40.1192 65.9014 41.9328V41.8099L65.9505 41.8713L66.6254 37.824C67.0877 35.0411 67.758 32.3189 68.6276 29.6933C69.5138 27.0156 70.3898 25.7168 71.2556 25.7971C71.4026 25.8066 71.5445 25.8686 71.6644 25.9757C71.7844 26.0828 71.8774 26.2306 71.9325 26.4016C72.4765 27.6158 72.2018 29.8744 71.1083 33.1772L71.1124 33.1695Z" fill="white"/>
<path d="M102.935 26.2326H102.902L101.812 29.2681C101.403 31.1842 100.842 32.7468 100.104 35.2649C99.3658 37.783 98.468 39.8272 97.4025 41.4C96.2123 43.13 95.4406 43.6534 95.0874 42.9703C94.797 42.3248 94.8284 39.6052 95.1815 34.8115C95.3424 32.8783 95.4556 31.3678 95.521 30.28C95.6289 29.0831 95.5469 27.8712 95.2797 26.7142C95.0871 25.8592 94.7502 25.066 94.2919 24.3882C93.865 23.8247 93.3469 23.3819 92.7724 23.0894C92.2402 22.7976 91.6799 22.5944 91.1056 22.4849C90.578 22.4022 90.0459 22.3722 89.5145 22.3952C89.1358 22.3988 88.7576 22.4287 88.3815 22.4849C88.177 22.5233 88.0277 22.5669 87.8989 22.6053L87.9929 25.1439C88.0584 26.8363 87.8736 28.8506 87.4387 31.1868C87.0038 33.523 86.2887 35.3349 85.2934 36.6226C84.2626 37.9512 83.5223 38.3944 83.0724 37.952C82.3321 37.1887 82.3805 33.1191 83.2176 25.7433C83.3771 24.4164 83.2503 23.3277 82.8311 22.4823C82.4904 21.7245 81.9671 21.1211 81.3361 20.7584C80.6663 20.4328 79.9578 20.2492 79.2398 20.2153C78.6704 20.1508 78.0975 20.1508 77.5281 20.2153L76.7591 20.3664C76.8532 20.7686 76.7959 21.8599 76.5894 23.63C76.3828 25.4 76.1926 27.3161 76.0351 29.3706C75.8731 31.4286 75.8165 33.4975 75.8654 35.5646C75.9145 37.6412 76.3003 39.3729 77.0229 40.7596C77.7456 42.1463 78.8308 42.8823 80.2788 42.9677C82.8188 43.1266 84.9089 41.616 86.5491 38.4362C86.485 45.204 87.9977 48.588 91.0872 48.588C92.195 48.5924 93.2902 48.2934 94.296 47.7119C95.2678 47.1604 96.1567 46.404 96.924 45.4756C97.7205 44.4803 98.4244 43.3751 99.0222 42.1813C99.0427 42.1403 99.0652 42.0993 99.0836 42.0558C99.6773 40.9022 100.198 39.6919 100.64 38.4362C101.057 37.2271 101.459 35.9378 101.847 34.5681C102.234 33.1985 102.515 32.0594 102.691 31.1509C102.865 30.2492 103.035 29.3578 103.196 28.4971C103.358 27.6364 104.374 27.352 104.374 27.3085C104.497 26.7603 103.434 26.2889 102.935 26.2326Z" fill="white"/>
<path d="M114.87 36.5022L114.146 30.8307C113.959 29.3374 113.686 27.8631 113.328 26.4196C113.015 25.1964 112.594 24.0209 112.072 22.9153C111.559 21.8274 110.925 21.082 110.168 20.6789C109.409 20.2768 108.569 20.2973 107.634 20.7404C106.487 21.3292 105.415 22.123 104.45 23.0971C104.387 23.1791 104.387 23.1817 104.35 23.2355L104.258 23.3994C103.752 24.2978 103.31 25.2492 102.935 26.2428C102.048 28.6368 101.328 31.1223 100.783 33.6716C100.055 36.9436 99.4865 39.7384 99.0775 42.0558C98.8893 43.1266 98.7332 44.0957 98.6091 44.9632L98.8034 45.0836C98.965 45.1631 99.1327 45.2425 99.3106 45.3244C99.5076 45.4108 99.7155 45.4516 99.9241 45.4448C100.147 45.4064 100.262 45.1887 100.262 44.7814C100.71 42.3222 101.225 39.9254 101.806 37.5909C102.528 34.8323 103.449 32.1615 104.556 29.6114C104.843 28.6866 105.182 28.1845 105.567 28.1C106.21 29.7531 106.854 34.0225 107.497 40.9082C107.755 42.5246 108.221 43.726 108.896 44.4945C109.571 45.263 110.24 45.7138 110.9 45.7932C111.642 45.8624 112.388 45.7493 113.095 45.4602C113.661 45.2642 114.216 45.0221 114.757 44.7353C115.006 44.5974 115.241 44.4256 115.459 44.2229C115.391 43.7892 115.194 41.2156 114.87 36.5022Z" fill="white"/>
<path d="M137.879 33.4513C137.513 34.3683 137.121 35.2854 136.695 36.2025C136.253 37.1694 135.722 38.0678 135.112 38.8794C134.758 39.348 134.378 39.7853 133.975 40.1884C132.875 41.2745 131.736 41.8201 130.546 41.8201C129.825 41.8439 129.125 41.5191 128.591 40.9133C128.053 40.2882 127.69 39.4627 127.556 38.5592C127.394 37.5909 127.29 36.8762 127.241 36.4099C127.195 35.9794 127.171 35.5456 127.171 35.1112C128.359 33.7884 129.411 32.2871 130.304 30.6411C131.721 27.9446 132.477 25.4871 132.572 23.2688L131.221 22.5413C130.118 26.467 128.264 29.9947 125.821 32.816C124.468 34.1036 123.807 32.6939 123.84 28.5867C123.935 26.1292 124.064 23.3294 124.226 20.1871C124.301 19.0087 124.211 17.823 123.962 16.6828C123.784 15.8192 123.444 15.0212 122.971 14.3543C122.538 13.7989 122.022 13.3573 121.451 13.0555C120.931 12.7594 120.38 12.5559 119.815 12.451C119.287 12.3681 118.755 12.3381 118.224 12.3613C117.844 12.3649 117.466 12.3948 117.089 12.451C116.897 12.492 116.735 12.5304 116.606 12.5714C116.8 13.4252 116.841 14.8768 116.729 16.9261C116.617 18.9755 116.488 22.3295 116.34 26.9883C116.204 31.6402 116.211 35.235 116.361 37.7727C116.511 40.3105 116.905 42.3512 117.545 43.895C118.171 45.4448 119.003 46.2005 120.03 46.1595C122.695 46.2893 124.573 44.0171 125.664 39.343L126.055 40.4906C126.339 41.2975 126.873 42.0737 127.644 42.8166C128.38 43.5504 129.311 43.9065 130.249 43.8131C131.29 43.8098 132.312 43.4663 133.215 42.8166C134.135 42.1765 134.965 41.3489 135.669 40.3677C135.92 40.0142 136.172 39.6376 136.413 39.238C136.856 38.4989 137.266 37.7292 137.64 36.9325C137.998 36.164 138.317 35.4468 138.591 34.7628C138.221 34.5835 137.976 34.1608 137.879 33.4513Z" fill="white"/>
<path d="M158.832 36.0488C158.832 36.0488 158.075 39.3123 152.637 41.7638C152.363 41.8942 152.071 41.9585 151.778 41.9533C148.839 41.8483 150.216 35.0369 150.676 27.1138C150.78 25.9175 150.705 24.7072 150.455 23.5454C150.276 22.6846 149.937 21.8886 149.467 21.222C149.035 20.6667 148.519 20.2251 147.95 19.9233C147.429 19.6282 146.878 19.4247 146.313 19.3187C145.786 19.2362 145.254 19.2054 144.722 19.2265C144.343 19.2317 143.964 19.2625 143.587 19.3187C143.395 19.3597 143.234 19.3981 143.105 19.4391C143.266 20.2845 143.297 21.637 143.203 23.4891C140.307 22.8845 137.716 23.4686 135.431 25.2412C134.076 26.2875 133.006 27.8249 132.364 29.6498C131.702 31.5044 131.598 33.2378 132.051 34.8499C132.222 35.4831 132.511 36.0562 132.894 36.5221C133.277 36.9879 133.743 37.3332 134.253 37.5294C134.529 37.6505 134.811 37.7439 135.098 37.8086C135.253 37.8393 135.413 37.865 135.57 37.8855C137.903 38.1877 140.126 37.0546 142.238 34.4862C142.136 36.3181 142.153 38.1573 142.287 39.986C142.383 41.3805 142.792 42.7125 143.467 43.8284C144.127 44.8966 145.06 45.2681 146.242 45.4295C149.346 45.8598 155.022 45.4961 160.889 37.0247M142.622 30.0212C141.395 31.6743 140.205 32.7622 139.053 33.2848C138.517 33.5102 138.088 33.5409 137.757 33.4103C137.361 33.2395 137.116 32.8057 137.02 32.109C136.979 31.7778 136.966 31.442 136.982 31.1074C136.992 30.2076 137.256 29.3414 137.726 28.661C137.962 28.3222 138.238 28.0303 138.544 27.7952C138.846 27.5724 139.17 27.4002 139.507 27.2828C139.579 27.2547 139.648 27.229 139.712 27.2086C140.261 27.0095 140.819 26.8521 141.383 26.7372C141.901 26.6379 142.425 26.5874 142.949 26.5861C142.854 27.3409 142.742 28.4834 142.614 30.0135L142.622 30.0212Z" fill="white"/>
<path d="M159.772 38.1826C159.378 37.7881 159.1 37.5627 158.459 36.9889C158.796 36.3291 158.999 35.5764 159.05 34.7961C158.746 35.1752 158.267 35.2547 157.889 35.3622C159.637 34.0661 157.463 31.238 159.116 29.9213C157.146 29.5115 154.911 30.6207 153.615 27.995C152.183 25.2591 152.013 20.9428 153.778 18.4196C150.672 20.4151 149.279 24.6418 150.346 28.7609C150.162 28.6443 149.998 28.481 149.866 28.2813C149.734 28.0815 149.636 27.8498 149.58 27.6005C149.412 28.4407 149.017 28.7814 148.557 28.8019C147.823 28.2409 147.14 27.7311 146.524 27.2854L146.344 27.1522L145.407 26.4759C145.623 25.3503 146.037 24.2998 146.62 23.402C146.048 24.7058 148.017 27.4263 148.273 25.8714C148.336 24.0449 147.5 22.3338 147.434 20.5048C147.344 17.9559 148.851 15.5992 150.735 14.6284C154.76 11.8106 161.662 19.0216 162.044 13.7139C161.891 12.6687 160.909 12.246 160.247 11.5826C156.77 7.2278 162.31 1.9329 165.656 5.55761C166.376 6.5336 168.315 7.57106 168.149 5.36293C168.838 6.22876 168.705 8.06289 167.74 8.5496C166.531 8.83907 165.73 7.13558 164.568 7.03824C162.245 6.45675 161.662 9.68953 163.167 11.5288C164.924 14.175 168.746 12.8096 167.527 17.7484C167.045 20.2076 165.482 22.8717 163.257 22.5848C162.605 22.5643 162.253 21.8957 162.049 21.1913C161.766 20.3152 161.263 19.142 160.46 19.0421C159.713 18.9575 158.881 19.5339 158.439 20.2614C158.163 20.7265 157.993 21.2774 157.949 21.8544C157.905 22.4314 157.987 23.0126 158.187 23.5352C158.907 25.3539 160.901 26.02 161.474 27.9207C161.693 28.7569 161.673 29.6628 161.417 30.4823C161.249 31.0818 160.267 32.4983 160.384 33.0926C160.566 34.0123 161.815 33.6511 162.075 33.026C161.899 35.5979 161.03 37.2502 159.772 38.1826Z" fill="white"/>
<path d="M146.524 27.2854L146.344 27.1522C146.332 27.0421 146.326 26.9293 146.32 26.8192C146.375 26.9831 146.443 27.1394 146.524 27.2854Z" fill="white"/>
<path d="M163.703 20.5022C164.595 20.8378 165.488 20.1384 166.043 19.2957C165.672 20.4356 164.37 22.4567 163.292 21.8291C163.141 21.1562 162.854 20.5437 162.458 20.0514C162.752 19.7747 163.402 20.3895 163.703 20.5022Z" fill="white"/>
<path d="M162.016 5.72669C162.211 5.59462 162.427 5.51481 162.648 5.49233C162.869 5.46984 163.092 5.50515 163.302 5.59604C162.915 5.62003 162.546 5.80789 162.255 6.12887C161.967 6.4477 161.706 6.8031 161.476 7.18938C161.425 7.26879 161.347 7.35845 161.271 7.3149C161.091 7.21244 161.349 6.59764 161.408 6.47212C161.553 6.15938 161.763 5.90175 162.016 5.72669Z" fill="white"/>
<path d="M162.511 27.3802L162.539 27.4032C162.649 27.1811 162.747 26.951 162.834 26.7142C162.932 26.5017 163.001 26.2707 163.039 26.0302C163.056 25.9099 163.049 25.7861 163.02 25.6695C162.99 25.553 162.938 25.4473 162.869 25.3616C162.734 25.2404 162.573 25.1718 162.407 25.1644C161.711 25.0542 160.605 24.775 161.28 25.8663C161.631 26.4416 162.045 26.9514 162.511 27.3802Z" fill="white"/>
<path d="M168.663 8.82114C168.898 8.54355 169.078 8.1998 169.187 7.81816C169.297 7.43651 169.332 7.02787 169.29 6.62582C169.417 6.66414 169.535 6.7352 169.638 6.83441C169.74 6.93362 169.825 7.05876 169.887 7.20172C169.949 7.34469 169.986 7.50228 169.996 7.66432C170.006 7.82635 169.988 7.98919 169.945 8.14231C169.835 8.44253 169.641 8.68215 169.4 8.81611C169.159 8.95008 168.887 8.96917 168.636 8.86981L168.663 8.82114Z" fill="white"/>
</g>
<defs>
<filter id="filter0_d_110_765" x="0" y="0.165375" width="174" height="74.5538" filterUnits="userSpaceOnUse" color-interpolation-filters="sRGB">
<feFlood flood-opacity="0" result="BackgroundImageFix"/>
<feColorMatrix in="SourceAlpha" type="matrix" values="0 0 0 0 0 0 0 0 0 0 0 0 0 0 0 0 0 0 127 0" result="hardAlpha"/>
<feOffset dy="4"/>
<feGaussianBlur stdDeviation="2"/>
<feComposite in2="hardAlpha" operator="out"/>
<feColorMatrix type="matrix" values="0 0 0 0 0 0 0 0 0 0 0 0 0 0 0 0 0 0 0.25 0"/>
<feBlend mode="normal" in2="BackgroundImageFix" result="effect1_dropShadow_110_765"/>
<feBlend mode="normal" in="SourceGraphic" in2="effect1_dropShadow_110_765" result="shape"/>
</filter>
<clipPath id="clip0_110_765">
<rect width="166" height="66.5538" fill="white" transform="translate(4 0.165375)"/>
</clipPath>
</defs>
</svg>
