<svg width="24" height="24" viewBox="0 0 24 24" fill="none" xmlns="http://www.w3.org/2000/svg">
<path d="M20.3427 15.5216C19.2338 15.3303 18.1468 15.0162 17.0993 14.5849C16.5824 14.3691 16.002 14.4092 15.5164 14.6939C15.0351 14.9772 14.7015 15.4768 14.6097 16.052C14.575 16.4466 14.3655 16.8001 14.0452 17.0047C13.7429 17.1178 13.4077 17.0711 13.1428 16.8789C10.1871 15.0889 7.71472 12.5252 5.96274 9.43364C5.7754 9.15748 5.72402 8.80307 5.82471 8.48048C6.01166 8.13773 6.34104 7.90902 6.7125 7.86408C7.2556 7.75124 7.72116 7.38483 7.98001 6.86697C8.23868 6.34933 8.26298 5.73531 8.04603 5.19587C7.61675 4.09623 7.2975 2.95202 7.09357 1.78217C7.01658 1.29649 6.76696 0.860279 6.39616 0.562923C6.02536 0.265567 5.56125 0.129423 5.09915 0.182802L2.73678 0.444681L2.73678 0.444467C1.87628 0.539011 1.09595 1.02036 0.594216 1.76627C0.0924456 2.51212 -0.0822334 3.45058 0.114562 4.34299C1.13977 8.92527 3.37126 13.1069 6.54985 16.4031C9.72813 19.699 13.7233 21.9743 18.0711 22.9641C18.9222 23.1539 19.8088 22.9462 20.5039 22.3936C21.199 21.8412 21.6347 20.9978 21.6995 20.0796L21.8945 17.6011C21.934 17.1107 21.7956 16.6227 21.5073 16.2364C21.219 15.85 20.8026 15.5944 20.3428 15.5216L20.3427 15.5216Z" fill="#ED6505"/>
</svg>
