<svg width="34" height="32" viewBox="0 0 34 32" fill="none" xmlns="http://www.w3.org/2000/svg">
<path d="M0 16C0 20.2434 1.79105 24.3129 4.97917 27.3137C8.16749 30.3142 12.4918 32 17 32C21.5082 32 25.8324 30.3143 29.0208 27.3137C32.2089 24.3129 34 20.243 34 16C34 11.757 32.2089 7.68712 29.0208 4.68628C25.8325 1.68576 21.5082 1.60545e-06 17 1.60545e-06C12.4927 0.00459345 8.17172 1.69157 4.98472 4.69137C1.79744 7.69091 0.00499588 11.7582 0.0001387 15.9999L0 16ZM17.8626 11.7599L23.9341 17.4742C24.1599 17.6908 24.2862 17.9821 24.2862 18.2857C24.2862 18.5893 24.1599 18.8806 23.9341 19.0972C23.7048 19.3113 23.395 19.4314 23.0719 19.4314C22.7488 19.4314 22.439 19.3113 22.2097 19.0972L17.0004 14.1829L11.7912 19.0972C11.483 19.387 11.0341 19.5003 10.6134 19.3942C10.1925 19.2881 9.86397 18.9789 9.75121 18.5827C9.63845 18.1868 9.7588 17.7643 10.0667 17.4742L16.1382 11.7599C16.3675 11.5459 16.6773 11.4257 17.0004 11.4257C17.3235 11.4257 17.6333 11.5459 17.8626 11.7599Z" fill="#ED6505"/>
</svg>
